<mxfile host="app.diagrams.net" agent="Mozilla/5.0 (Windows NT 10.0; Win64; x64) AppleWebKit/537.36 (KHTML, like Gecko) Chrome/131.0.0.0 Safari/537.36" version="24.9.0">
  <diagram name="Page-1" id="74e2e168-ea6b-b213-b513-2b3c1d86103e">
    <mxGraphModel dx="1050" dy="557" grid="1" gridSize="10" guides="1" tooltips="1" connect="1" arrows="1" fold="1" page="1" pageScale="1" pageWidth="1100" pageHeight="850" background="none" math="0" shadow="0">
      <root>
        <mxCell id="0" />
        <mxCell id="1" parent="0" />
        <mxCell id="77e6c97f196da883-1" value="&lt;p class=&quot;MsoNormal&quot;&gt;&lt;span style=&quot;font-family: 宋体;&quot;&gt;&lt;font style=&quot;font-size: 18px;&quot;&gt;班前教育培训交互流程&lt;/font&gt;&lt;/span&gt;&lt;/p&gt;" style="swimlane;html=1;childLayout=stackLayout;startSize=40;rounded=0;shadow=0;labelBackgroundColor=none;strokeWidth=1;fontFamily=Verdana;fontSize=8;align=center;" parent="1" vertex="1">
          <mxGeometry x="70" y="40" width="610" height="1230" as="geometry" />
        </mxCell>
        <mxCell id="77e6c97f196da883-2" value="&lt;font style=&quot;font-size: 14px;&quot;&gt;用户&lt;/font&gt;" style="swimlane;html=1;startSize=30;" parent="77e6c97f196da883-1" vertex="1">
          <mxGeometry y="40" width="210" height="1190" as="geometry" />
        </mxCell>
        <mxCell id="77e6c97f196da883-8" value="&lt;font style=&quot;font-size: 14px;&quot;&gt;通过语音下达&lt;/font&gt;&lt;div&gt;&lt;font style=&quot;font-size: 14px;&quot;&gt;班前教育指令&lt;/font&gt;&lt;/div&gt;" style="rounded=1;whiteSpace=wrap;html=1;shadow=0;labelBackgroundColor=none;strokeWidth=1;fontFamily=Verdana;fontSize=8;align=center;" parent="77e6c97f196da883-2" vertex="1">
          <mxGeometry x="55" y="110" width="100" height="60" as="geometry" />
        </mxCell>
        <mxCell id="Paae4aZZZ5Mrlqz_c9XC-4" style="edgeStyle=orthogonalEdgeStyle;rounded=0;orthogonalLoop=1;jettySize=auto;html=1;exitX=0.5;exitY=1;exitDx=0;exitDy=0;exitPerimeter=0;entryX=0.5;entryY=0;entryDx=0;entryDy=0;" edge="1" parent="77e6c97f196da883-2" source="Paae4aZZZ5Mrlqz_c9XC-3" target="77e6c97f196da883-8">
          <mxGeometry relative="1" as="geometry" />
        </mxCell>
        <mxCell id="Paae4aZZZ5Mrlqz_c9XC-3" value="&lt;font style=&quot;font-size: 14px;&quot;&gt;开始&lt;/font&gt;" style="strokeWidth=2;html=1;shape=mxgraph.flowchart.terminator;whiteSpace=wrap;" vertex="1" parent="77e6c97f196da883-2">
          <mxGeometry x="62.5" y="40" width="85" height="40" as="geometry" />
        </mxCell>
        <mxCell id="Paae4aZZZ5Mrlqz_c9XC-2" value="&lt;font style=&quot;font-size: 12px;&quot;&gt;打开小程序&lt;/font&gt;" style="rounded=1;whiteSpace=wrap;html=1;shadow=0;labelBackgroundColor=none;strokeWidth=1;fontFamily=Verdana;fontSize=8;align=center;" vertex="1" parent="77e6c97f196da883-2">
          <mxGeometry x="55" y="490" width="100" height="60" as="geometry" />
        </mxCell>
        <mxCell id="Paae4aZZZ5Mrlqz_c9XC-28" value="&lt;font style=&quot;font-size: 12px;&quot;&gt;点击下一步&lt;/font&gt;" style="rounded=1;whiteSpace=wrap;html=1;shadow=0;labelBackgroundColor=none;strokeWidth=1;fontFamily=Verdana;fontSize=8;align=center;" vertex="1" parent="77e6c97f196da883-2">
          <mxGeometry x="55" y="570" width="100" height="60" as="geometry" />
        </mxCell>
        <mxCell id="Paae4aZZZ5Mrlqz_c9XC-53" value="&lt;p class=&quot;MsoNormal&quot;&gt;&lt;span style=&quot;&quot;&gt;手持手机进行人员拍照&lt;/span&gt;&lt;/p&gt;" style="rounded=1;whiteSpace=wrap;html=1;shadow=0;labelBackgroundColor=none;strokeWidth=1;fontFamily=Verdana;fontSize=12;align=center;" vertex="1" parent="77e6c97f196da883-2">
          <mxGeometry x="55" y="920" width="100" height="60" as="geometry" />
        </mxCell>
        <mxCell id="Paae4aZZZ5Mrlqz_c9XC-61" style="edgeStyle=orthogonalEdgeStyle;rounded=0;orthogonalLoop=1;jettySize=auto;html=1;exitX=0;exitY=0.5;exitDx=0;exitDy=0;entryX=0;entryY=0.5;entryDx=0;entryDy=0;" edge="1" parent="77e6c97f196da883-2" source="Paae4aZZZ5Mrlqz_c9XC-56" target="Paae4aZZZ5Mrlqz_c9XC-53">
          <mxGeometry relative="1" as="geometry" />
        </mxCell>
        <mxCell id="Paae4aZZZ5Mrlqz_c9XC-62" value="否" style="edgeLabel;html=1;align=center;verticalAlign=middle;resizable=0;points=[];" vertex="1" connectable="0" parent="Paae4aZZZ5Mrlqz_c9XC-61">
          <mxGeometry x="-0.114" relative="1" as="geometry">
            <mxPoint x="1" as="offset" />
          </mxGeometry>
        </mxCell>
        <mxCell id="Paae4aZZZ5Mrlqz_c9XC-56" value="点击是否合规按钮" style="rhombus;whiteSpace=wrap;html=1;" vertex="1" parent="77e6c97f196da883-2">
          <mxGeometry x="37.5" y="1050" width="135" height="60" as="geometry" />
        </mxCell>
        <mxCell id="77e6c97f196da883-3" value="&lt;font&gt;数字人&lt;/font&gt;" style="swimlane;html=1;startSize=30;fontSize=12;fontFamily=Verdana;" parent="77e6c97f196da883-1" vertex="1">
          <mxGeometry x="210" y="40" width="200" height="1190" as="geometry" />
        </mxCell>
        <mxCell id="Paae4aZZZ5Mrlqz_c9XC-16" style="edgeStyle=orthogonalEdgeStyle;rounded=0;orthogonalLoop=1;jettySize=auto;html=1;exitX=0.5;exitY=1;exitDx=0;exitDy=0;entryX=0.5;entryY=0;entryDx=0;entryDy=0;" edge="1" parent="77e6c97f196da883-3" source="77e6c97f196da883-11" target="Paae4aZZZ5Mrlqz_c9XC-15">
          <mxGeometry relative="1" as="geometry" />
        </mxCell>
        <mxCell id="77e6c97f196da883-11" value="&lt;font&gt;开启班前教育流程&lt;/font&gt;&lt;div&gt;&lt;font&gt;并关闭实时知识问答&lt;/font&gt;&lt;/div&gt;" style="rounded=1;whiteSpace=wrap;html=1;shadow=0;labelBackgroundColor=none;strokeWidth=1;fontFamily=Verdana;fontSize=11;align=center;" parent="77e6c97f196da883-3" vertex="1">
          <mxGeometry x="50" y="210" width="100" height="60" as="geometry" />
        </mxCell>
        <mxCell id="Paae4aZZZ5Mrlqz_c9XC-18" style="edgeStyle=orthogonalEdgeStyle;rounded=0;orthogonalLoop=1;jettySize=auto;html=1;exitX=0.5;exitY=1;exitDx=0;exitDy=0;" edge="1" parent="77e6c97f196da883-3" source="Paae4aZZZ5Mrlqz_c9XC-15" target="Paae4aZZZ5Mrlqz_c9XC-17">
          <mxGeometry relative="1" as="geometry" />
        </mxCell>
        <mxCell id="Paae4aZZZ5Mrlqz_c9XC-15" value="&lt;p class=&quot;MsoNormal&quot;&gt;&lt;span style=&quot;&quot;&gt;弹出一部手机管安全二维码，并播放操作指南语音&lt;/span&gt;&lt;/p&gt;" style="rounded=1;whiteSpace=wrap;html=1;shadow=0;labelBackgroundColor=none;strokeWidth=1;fontFamily=Verdana;fontSize=12;align=center;" vertex="1" parent="77e6c97f196da883-3">
          <mxGeometry x="50" y="300" width="100" height="60" as="geometry" />
        </mxCell>
        <mxCell id="Paae4aZZZ5Mrlqz_c9XC-17" value="&lt;p class=&quot;MsoNormal&quot;&gt;&lt;span style=&quot;&quot;&gt;弹出下一步按钮&lt;/span&gt;&lt;/p&gt;" style="rounded=1;whiteSpace=wrap;html=1;shadow=0;labelBackgroundColor=none;strokeWidth=1;fontFamily=Verdana;fontSize=12;align=center;" vertex="1" parent="77e6c97f196da883-3">
          <mxGeometry x="50" y="390" width="100" height="60" as="geometry" />
        </mxCell>
        <mxCell id="Paae4aZZZ5Mrlqz_c9XC-41" style="edgeStyle=orthogonalEdgeStyle;rounded=0;orthogonalLoop=1;jettySize=auto;html=1;exitX=0.5;exitY=1;exitDx=0;exitDy=0;entryX=0.5;entryY=0;entryDx=0;entryDy=0;" edge="1" parent="77e6c97f196da883-3" source="Paae4aZZZ5Mrlqz_c9XC-30" target="Paae4aZZZ5Mrlqz_c9XC-40">
          <mxGeometry relative="1" as="geometry" />
        </mxCell>
        <mxCell id="Paae4aZZZ5Mrlqz_c9XC-30" value="&lt;p class=&quot;MsoNormal&quot;&gt;&lt;span style=&quot;&quot;&gt;播报班前教育培训内容&lt;/span&gt;&lt;/p&gt;" style="rounded=1;whiteSpace=wrap;html=1;shadow=0;labelBackgroundColor=none;strokeWidth=1;fontFamily=Verdana;fontSize=12;align=center;" vertex="1" parent="77e6c97f196da883-3">
          <mxGeometry x="50" y="640" width="100" height="60" as="geometry" />
        </mxCell>
        <mxCell id="Paae4aZZZ5Mrlqz_c9XC-51" style="edgeStyle=orthogonalEdgeStyle;rounded=0;orthogonalLoop=1;jettySize=auto;html=1;exitX=0.5;exitY=1;exitDx=0;exitDy=0;entryX=0.5;entryY=0;entryDx=0;entryDy=0;" edge="1" parent="77e6c97f196da883-3" source="Paae4aZZZ5Mrlqz_c9XC-40" target="Paae4aZZZ5Mrlqz_c9XC-50">
          <mxGeometry relative="1" as="geometry" />
        </mxCell>
        <mxCell id="Paae4aZZZ5Mrlqz_c9XC-40" value="&lt;p class=&quot;MsoNormal&quot;&gt;&lt;span style=&quot;&quot;&gt;播报班前教育完成&lt;/span&gt;&lt;/p&gt;" style="rounded=1;whiteSpace=wrap;html=1;shadow=0;labelBackgroundColor=none;strokeWidth=1;fontFamily=Verdana;fontSize=12;align=center;" vertex="1" parent="77e6c97f196da883-3">
          <mxGeometry x="50" y="750" width="100" height="60" as="geometry" />
        </mxCell>
        <mxCell id="Paae4aZZZ5Mrlqz_c9XC-50" value="&lt;p class=&quot;MsoNormal&quot;&gt;&lt;span style=&quot;&quot;&gt;弹出两个按钮一个是照片合规一个是照片不合规&lt;/span&gt;&lt;/p&gt;" style="rounded=1;whiteSpace=wrap;html=1;shadow=0;labelBackgroundColor=none;strokeWidth=1;fontFamily=Verdana;fontSize=12;align=center;" vertex="1" parent="77e6c97f196da883-3">
          <mxGeometry x="50" y="850" width="100" height="60" as="geometry" />
        </mxCell>
        <mxCell id="Paae4aZZZ5Mrlqz_c9XC-64" value="&lt;p class=&quot;MsoNormal&quot;&gt;&lt;span style=&quot;&quot;&gt;播报签字提示&lt;/span&gt;&lt;/p&gt;" style="rounded=1;whiteSpace=wrap;html=1;shadow=0;labelBackgroundColor=none;strokeWidth=1;fontFamily=Verdana;fontSize=12;align=center;" vertex="1" parent="77e6c97f196da883-3">
          <mxGeometry x="50" y="1050" width="100" height="60" as="geometry" />
        </mxCell>
        <mxCell id="Paae4aZZZ5Mrlqz_c9XC-23" style="edgeStyle=orthogonalEdgeStyle;rounded=0;orthogonalLoop=1;jettySize=auto;html=1;exitX=0;exitY=0.5;exitDx=0;exitDy=0;entryX=0.5;entryY=0;entryDx=0;entryDy=0;" edge="1" parent="77e6c97f196da883-1" source="Paae4aZZZ5Mrlqz_c9XC-17" target="Paae4aZZZ5Mrlqz_c9XC-2">
          <mxGeometry relative="1" as="geometry">
            <mxPoint x="109" y="520" as="targetPoint" />
          </mxGeometry>
        </mxCell>
        <mxCell id="Paae4aZZZ5Mrlqz_c9XC-25" style="edgeStyle=orthogonalEdgeStyle;rounded=0;orthogonalLoop=1;jettySize=auto;html=1;exitX=1;exitY=0.5;exitDx=0;exitDy=0;entryX=0.5;entryY=0;entryDx=0;entryDy=0;elbow=vertical;" edge="1" parent="77e6c97f196da883-1" source="77e6c97f196da883-8" target="77e6c97f196da883-11">
          <mxGeometry relative="1" as="geometry" />
        </mxCell>
        <mxCell id="Paae4aZZZ5Mrlqz_c9XC-39" style="edgeStyle=orthogonalEdgeStyle;rounded=0;orthogonalLoop=1;jettySize=auto;html=1;exitX=0.5;exitY=1;exitDx=0;exitDy=0;entryX=0;entryY=0.5;entryDx=0;entryDy=0;" edge="1" parent="77e6c97f196da883-1" source="Paae4aZZZ5Mrlqz_c9XC-28" target="Paae4aZZZ5Mrlqz_c9XC-30">
          <mxGeometry relative="1" as="geometry" />
        </mxCell>
        <mxCell id="Paae4aZZZ5Mrlqz_c9XC-54" style="edgeStyle=orthogonalEdgeStyle;rounded=0;orthogonalLoop=1;jettySize=auto;html=1;exitX=0;exitY=0.5;exitDx=0;exitDy=0;entryX=0.5;entryY=0;entryDx=0;entryDy=0;" edge="1" parent="77e6c97f196da883-1" source="Paae4aZZZ5Mrlqz_c9XC-50" target="Paae4aZZZ5Mrlqz_c9XC-53">
          <mxGeometry relative="1" as="geometry" />
        </mxCell>
        <mxCell id="Paae4aZZZ5Mrlqz_c9XC-65" style="edgeStyle=orthogonalEdgeStyle;rounded=0;orthogonalLoop=1;jettySize=auto;html=1;exitX=1;exitY=0.5;exitDx=0;exitDy=0;entryX=0;entryY=0.5;entryDx=0;entryDy=0;" edge="1" parent="77e6c97f196da883-1" source="Paae4aZZZ5Mrlqz_c9XC-56" target="Paae4aZZZ5Mrlqz_c9XC-64">
          <mxGeometry relative="1" as="geometry" />
        </mxCell>
        <mxCell id="Paae4aZZZ5Mrlqz_c9XC-66" value="是" style="edgeLabel;html=1;align=center;verticalAlign=middle;resizable=0;points=[];" vertex="1" connectable="0" parent="Paae4aZZZ5Mrlqz_c9XC-65">
          <mxGeometry x="0.1771" y="-5" relative="1" as="geometry">
            <mxPoint x="1" as="offset" />
          </mxGeometry>
        </mxCell>
        <mxCell id="Paae4aZZZ5Mrlqz_c9XC-1" value="&lt;font style=&quot;font-size: 14px;&quot;&gt;一部手机管安全&lt;/font&gt;" style="swimlane;html=1;startSize=30;" vertex="1" parent="1">
          <mxGeometry x="480" y="80" width="200" height="1190" as="geometry" />
        </mxCell>
        <mxCell id="Paae4aZZZ5Mrlqz_c9XC-26" value="&lt;span style=&quot;font-size: 12px;&quot;&gt;按照提示操作小程序进行班前教育&lt;/span&gt;" style="rounded=1;whiteSpace=wrap;html=1;shadow=0;labelBackgroundColor=none;strokeWidth=1;fontFamily=Verdana;fontSize=8;align=center;" vertex="1" parent="Paae4aZZZ5Mrlqz_c9XC-1">
          <mxGeometry x="50" y="490" width="100" height="60" as="geometry" />
        </mxCell>
        <mxCell id="Paae4aZZZ5Mrlqz_c9XC-52" value="&lt;p class=&quot;MsoNormal&quot;&gt;&lt;span style=&quot;&quot;&gt;识别安全帽是否穿戴、反光背心是否穿戴以及培训人员数量，并返回识别结果&lt;/span&gt;&lt;/p&gt;" style="rounded=1;whiteSpace=wrap;html=1;shadow=0;labelBackgroundColor=none;strokeWidth=1;fontFamily=Verdana;fontSize=12;align=center;" vertex="1" parent="Paae4aZZZ5Mrlqz_c9XC-1">
          <mxGeometry x="60" y="900" width="100" height="100" as="geometry" />
        </mxCell>
        <mxCell id="Paae4aZZZ5Mrlqz_c9XC-14" value="&lt;font&gt;语音内容：&lt;span style=&quot;font-family: 方正仿宋简体; background-color: initial;&quot;&gt;“阿诗玛，请进行一个隧道开挖的班前教育。”&lt;/span&gt;&lt;/font&gt;" style="rounded=0;whiteSpace=wrap;html=1;fontSize=14;" vertex="1" parent="1">
          <mxGeometry x="770" y="170" width="240" height="60" as="geometry" />
        </mxCell>
        <mxCell id="Paae4aZZZ5Mrlqz_c9XC-19" value="&lt;font&gt;语音内容：&lt;/font&gt;&lt;font style=&quot;font-family: 方正仿宋简体; background-color: initial;&quot; face=&quot;方正仿宋简体&quot;&gt;“请打开一部手机管安全小程序，点击施工上报&lt;/font&gt;&lt;font style=&quot;background-color: initial;&quot; face=&quot;Times New Roman&quot;&gt;-&lt;/font&gt;&lt;font style=&quot;font-family: 方正仿宋简体; background-color: initial;&quot; face=&quot;方正仿宋简体&quot;&gt;班前教育，并选择隧道开挖工序”&lt;/font&gt;" style="rounded=0;whiteSpace=wrap;html=1;fontSize=14;" vertex="1" parent="1">
          <mxGeometry x="770" y="360" width="240" height="100" as="geometry" />
        </mxCell>
        <mxCell id="Paae4aZZZ5Mrlqz_c9XC-21" value="" style="endArrow=none;dashed=1;html=1;rounded=0;exitX=1;exitY=0.25;exitDx=0;exitDy=0;entryX=0.003;entryY=0.623;entryDx=0;entryDy=0;entryPerimeter=0;" edge="1" parent="1" source="77e6c97f196da883-8" target="Paae4aZZZ5Mrlqz_c9XC-14">
          <mxGeometry width="50" height="50" relative="1" as="geometry">
            <mxPoint x="550" y="400" as="sourcePoint" />
            <mxPoint x="600" y="350" as="targetPoint" />
          </mxGeometry>
        </mxCell>
        <mxCell id="Paae4aZZZ5Mrlqz_c9XC-22" value="" style="endArrow=none;dashed=1;html=1;rounded=0;exitX=1;exitY=0.5;exitDx=0;exitDy=0;entryX=0;entryY=0.5;entryDx=0;entryDy=0;" edge="1" parent="1" source="Paae4aZZZ5Mrlqz_c9XC-15" target="Paae4aZZZ5Mrlqz_c9XC-19">
          <mxGeometry width="50" height="50" relative="1" as="geometry">
            <mxPoint x="550" y="400" as="sourcePoint" />
            <mxPoint x="600" y="350" as="targetPoint" />
          </mxGeometry>
        </mxCell>
        <mxCell id="Paae4aZZZ5Mrlqz_c9XC-27" style="edgeStyle=orthogonalEdgeStyle;rounded=0;orthogonalLoop=1;jettySize=auto;html=1;exitX=1;exitY=0.5;exitDx=0;exitDy=0;entryX=0;entryY=0.5;entryDx=0;entryDy=0;" edge="1" parent="1" source="Paae4aZZZ5Mrlqz_c9XC-2" target="Paae4aZZZ5Mrlqz_c9XC-26">
          <mxGeometry relative="1" as="geometry" />
        </mxCell>
        <mxCell id="Paae4aZZZ5Mrlqz_c9XC-29" style="edgeStyle=orthogonalEdgeStyle;rounded=0;orthogonalLoop=1;jettySize=auto;html=1;exitX=0.5;exitY=1;exitDx=0;exitDy=0;entryX=1;entryY=0.5;entryDx=0;entryDy=0;" edge="1" parent="1" source="Paae4aZZZ5Mrlqz_c9XC-26" target="Paae4aZZZ5Mrlqz_c9XC-28">
          <mxGeometry relative="1" as="geometry" />
        </mxCell>
        <mxCell id="Paae4aZZZ5Mrlqz_c9XC-42" value="&lt;font&gt;语音内容：&lt;/font&gt;&lt;font style=&quot;font-family: 方正仿宋简体; background-color: initial;&quot; face=&quot;方正仿宋简体&quot;&gt;“请打开一部手机管安全小程序，点击施工上报&lt;/font&gt;&lt;font style=&quot;background-color: initial;&quot; face=&quot;Times New Roman&quot;&gt;-&lt;/font&gt;&lt;font style=&quot;font-family: 方正仿宋简体; background-color: initial;&quot; face=&quot;方正仿宋简体&quot;&gt;班前教育，并选择隧道开挖工序”&lt;/font&gt;" style="rounded=0;whiteSpace=wrap;html=1;fontSize=14;" vertex="1" parent="1">
          <mxGeometry x="770" y="700" width="240" height="100" as="geometry" />
        </mxCell>
        <mxCell id="Paae4aZZZ5Mrlqz_c9XC-43" value="" style="endArrow=none;dashed=1;html=1;rounded=0;exitX=1;exitY=0.5;exitDx=0;exitDy=0;entryX=0;entryY=0.5;entryDx=0;entryDy=0;" edge="1" parent="1" source="Paae4aZZZ5Mrlqz_c9XC-30" target="Paae4aZZZ5Mrlqz_c9XC-42">
          <mxGeometry width="50" height="50" relative="1" as="geometry">
            <mxPoint x="550" y="540" as="sourcePoint" />
            <mxPoint x="750" y="749" as="targetPoint" />
          </mxGeometry>
        </mxCell>
        <mxCell id="Paae4aZZZ5Mrlqz_c9XC-46" value="&lt;font&gt;语音内容：&lt;/font&gt;&lt;span style=&quot;font-family: 方正仿宋简体; background-color: initial;&quot;&gt;“班前教育完成，请拍照上传。”&lt;/span&gt;" style="rounded=0;whiteSpace=wrap;html=1;fontSize=14;" vertex="1" parent="1">
          <mxGeometry x="770" y="825" width="240" height="70" as="geometry" />
        </mxCell>
        <mxCell id="Paae4aZZZ5Mrlqz_c9XC-48" value="" style="endArrow=none;dashed=1;html=1;rounded=0;exitX=1;exitY=0.5;exitDx=0;exitDy=0;entryX=0;entryY=0.5;entryDx=0;entryDy=0;" edge="1" parent="1" source="Paae4aZZZ5Mrlqz_c9XC-40" target="Paae4aZZZ5Mrlqz_c9XC-46">
          <mxGeometry width="50" height="50" relative="1" as="geometry">
            <mxPoint x="550" y="840" as="sourcePoint" />
            <mxPoint x="600" y="790" as="targetPoint" />
          </mxGeometry>
        </mxCell>
        <mxCell id="Paae4aZZZ5Mrlqz_c9XC-55" style="edgeStyle=orthogonalEdgeStyle;rounded=0;orthogonalLoop=1;jettySize=auto;html=1;exitX=1;exitY=0.5;exitDx=0;exitDy=0;" edge="1" parent="1" source="Paae4aZZZ5Mrlqz_c9XC-53" target="Paae4aZZZ5Mrlqz_c9XC-52">
          <mxGeometry relative="1" as="geometry" />
        </mxCell>
        <mxCell id="Paae4aZZZ5Mrlqz_c9XC-63" style="edgeStyle=orthogonalEdgeStyle;rounded=0;orthogonalLoop=1;jettySize=auto;html=1;exitX=0.5;exitY=1;exitDx=0;exitDy=0;entryX=0.5;entryY=0;entryDx=0;entryDy=0;" edge="1" parent="1" source="Paae4aZZZ5Mrlqz_c9XC-52" target="Paae4aZZZ5Mrlqz_c9XC-56">
          <mxGeometry relative="1" as="geometry" />
        </mxCell>
        <mxCell id="Paae4aZZZ5Mrlqz_c9XC-67" value="&lt;font&gt;语音内容：&lt;/font&gt;&lt;span style=&quot;font-family: 方正仿宋简体; background-color: initial;&quot;&gt;“班前教育完成，请拍照上传。”&lt;/span&gt;" style="rounded=0;whiteSpace=wrap;html=1;fontSize=14;" vertex="1" parent="1">
          <mxGeometry x="770" y="1120" width="240" height="70" as="geometry" />
        </mxCell>
      </root>
    </mxGraphModel>
  </diagram>
</mxfile>
